<mxfile host="app.diagrams.net" modified="2023-02-03T13:16:19.156Z" agent="5.0 (Windows NT 10.0; Win64; x64) AppleWebKit/537.36 (KHTML, like Gecko) Chrome/109.0.0.0 Safari/537.36" etag="zwaBfwxqQKJ_XleQ3YXc" version="20.8.10" type="github">
  <diagram name="Page-1" id="-GhN3AoTO70XJhTJp4iw">
    <mxGraphModel dx="1221" dy="783" grid="1" gridSize="10" guides="1" tooltips="1" connect="1" arrows="1" fold="1" page="1" pageScale="1" pageWidth="827" pageHeight="1169" math="0" shadow="0">
      <root>
        <mxCell id="0" />
        <mxCell id="1" parent="0" />
        <mxCell id="H3vJnbtFCfsntMHC7mZ7-4" value="Cool Care" style="shape=parallelogram;html=1;strokeWidth=2;perimeter=parallelogramPerimeter;whiteSpace=wrap;rounded=1;arcSize=12;size=0.23;" vertex="1" parent="1">
          <mxGeometry x="160" y="150" width="100" height="60" as="geometry" />
        </mxCell>
        <mxCell id="H3vJnbtFCfsntMHC7mZ7-5" value="Nourish" style="shape=parallelogram;html=1;strokeWidth=2;perimeter=parallelogramPerimeter;whiteSpace=wrap;rounded=1;arcSize=12;size=0.23;" vertex="1" parent="1">
          <mxGeometry x="270" y="150" width="100" height="60" as="geometry" />
        </mxCell>
        <mxCell id="H3vJnbtFCfsntMHC7mZ7-6" value="Other" style="shape=parallelogram;html=1;strokeWidth=2;perimeter=parallelogramPerimeter;whiteSpace=wrap;rounded=1;arcSize=12;size=0.23;" vertex="1" parent="1">
          <mxGeometry x="380" y="150" width="100" height="60" as="geometry" />
        </mxCell>
        <mxCell id="H3vJnbtFCfsntMHC7mZ7-9" value="No SQL data store" style="shape=internalStorage;whiteSpace=wrap;html=1;dx=15;dy=15;rounded=1;arcSize=8;strokeWidth=2;" vertex="1" parent="1">
          <mxGeometry x="250" y="310" width="115" height="70" as="geometry" />
        </mxCell>
        <mxCell id="H3vJnbtFCfsntMHC7mZ7-10" value="" style="aspect=fixed;html=1;points=[];align=center;image;fontSize=12;image=img/lib/azure2/integration/Service_Bus.svg;" vertex="1" parent="1">
          <mxGeometry x="273.5" y="450" width="68" height="60" as="geometry" />
        </mxCell>
        <mxCell id="H3vJnbtFCfsntMHC7mZ7-11" value="" style="endArrow=classic;startArrow=classic;html=1;rounded=0;exitX=0.25;exitY=0;exitDx=0;exitDy=0;" edge="1" parent="1" source="H3vJnbtFCfsntMHC7mZ7-9">
          <mxGeometry width="50" height="50" relative="1" as="geometry">
            <mxPoint x="150" y="260" as="sourcePoint" />
            <mxPoint x="200" y="210" as="targetPoint" />
          </mxGeometry>
        </mxCell>
        <mxCell id="H3vJnbtFCfsntMHC7mZ7-13" value="" style="endArrow=classic;startArrow=classic;html=1;rounded=0;entryX=0.5;entryY=1;entryDx=0;entryDy=0;" edge="1" parent="1" target="H3vJnbtFCfsntMHC7mZ7-5">
          <mxGeometry width="50" height="50" relative="1" as="geometry">
            <mxPoint x="300" y="310" as="sourcePoint" />
            <mxPoint x="350" y="260" as="targetPoint" />
          </mxGeometry>
        </mxCell>
        <mxCell id="H3vJnbtFCfsntMHC7mZ7-14" value="" style="endArrow=classic;startArrow=classic;html=1;rounded=0;entryX=0.5;entryY=1;entryDx=0;entryDy=0;" edge="1" parent="1" target="H3vJnbtFCfsntMHC7mZ7-6">
          <mxGeometry width="50" height="50" relative="1" as="geometry">
            <mxPoint x="341.5" y="310" as="sourcePoint" />
            <mxPoint x="391.5" y="260" as="targetPoint" />
          </mxGeometry>
        </mxCell>
        <mxCell id="H3vJnbtFCfsntMHC7mZ7-15" value="" style="endArrow=classic;html=1;rounded=0;" edge="1" parent="1" target="H3vJnbtFCfsntMHC7mZ7-10">
          <mxGeometry width="50" height="50" relative="1" as="geometry">
            <mxPoint x="310" y="380" as="sourcePoint" />
            <mxPoint x="360" y="330" as="targetPoint" />
          </mxGeometry>
        </mxCell>
        <mxCell id="H3vJnbtFCfsntMHC7mZ7-16" value="" style="shape=flexArrow;endArrow=classic;html=1;rounded=0;" edge="1" parent="1">
          <mxGeometry width="50" height="50" relative="1" as="geometry">
            <mxPoint x="305" y="510" as="sourcePoint" />
            <mxPoint x="305" y="580" as="targetPoint" />
          </mxGeometry>
        </mxCell>
        <mxCell id="H3vJnbtFCfsntMHC7mZ7-17" value="Send to Care Home Booking" style="text;html=1;strokeColor=none;fillColor=none;align=center;verticalAlign=middle;whiteSpace=wrap;rounded=0;" vertex="1" parent="1">
          <mxGeometry x="277.5" y="590" width="60" height="30" as="geometry" />
        </mxCell>
        <mxCell id="H3vJnbtFCfsntMHC7mZ7-18" value="Clean Up Data For Transfer" style="rounded=1;whiteSpace=wrap;html=1;absoluteArcSize=1;arcSize=14;strokeWidth=2;" vertex="1" parent="1">
          <mxGeometry x="470" y="330" width="100" height="100" as="geometry" />
        </mxCell>
        <mxCell id="H3vJnbtFCfsntMHC7mZ7-19" value="" style="endArrow=classic;html=1;rounded=0;exitX=0;exitY=0.5;exitDx=0;exitDy=0;entryX=1;entryY=0.614;entryDx=0;entryDy=0;entryPerimeter=0;" edge="1" parent="1" source="H3vJnbtFCfsntMHC7mZ7-18" target="H3vJnbtFCfsntMHC7mZ7-9">
          <mxGeometry width="50" height="50" relative="1" as="geometry">
            <mxPoint x="390" y="400" as="sourcePoint" />
            <mxPoint x="440" y="350" as="targetPoint" />
          </mxGeometry>
        </mxCell>
      </root>
    </mxGraphModel>
  </diagram>
</mxfile>
